# xmcd
#
# Track frame offsets:
#	182
#	19175
#	30542
#	50102
#	59032
#	69565
#	84012
#	88547
#	106267
#	116570
#	148990
#	163847
#	177370
#	205035
#
# Disc length: 2789 seconds
#
# Revision: 0
# Processed by: cddbd v1.4PL0 Copyright (c) Steve Scherf et al.
# Submitted via: dBpowerAMP V4.0
#
DISCID=c30ae30e
DTITLE=Ñaco Goñi - Blues Company
DYEAR=2001
DGENRE=Blues
TTITLE0=Armónica Boogie
TTITLE1=I'll be gone
TTITLE2=Rattlesnake in the bed
TTITLE3=Rag de Elvia
TTITLE4=Me and my buddy
TTITLE5=Armónica Incendiaria
TTITLE6=Free Slaves
TTITLE7=White Trash Blues
TTITLE8=Yes Or Not
TTITLE9=Last Night
TTITLE10=Black Rat Swing
TTITLE11=The Stuff You Gotta Watch
TTITLE12=Just A Little Love
TTITLE13=Me And My Buddy
EXTD=
EXTT0=
EXTT1=
EXTT2=
EXTT3=
EXTT4=
EXTT5=
EXTT6=
EXTT7=
EXTT8=
EXTT9=
EXTT10=
EXTT11=
EXTT12=
EXTT13=
PLAYORDER=
